<?xml version="1.0" standalone="no"?>
<!DOCTYPE svg PUBLIC "-//W3C//DTD SVG 20010904//EN"
 "http://www.w3.org/TR/2001/REC-SVG-20010904/DTD/svg10.dtd">
<svg version="1.0" xmlns="http://www.w3.org/2000/svg"
 width="700.000000pt" height="700.000000pt" viewBox="0 0 700.000000 700.000000"
 preserveAspectRatio="xMidYMid meet">
<metadata>
Created by potrace 1.11, written by Peter Selinger 2001-2013
</metadata>
<g transform="translate(0.000000,700.000000) scale(0.100000,-0.100000)"
fill="#000000" stroke="none">
<path d="M3560 6840 c0 -453 -139 -868 -414 -1240 -47 -63 -210 -236 -486
-515 -469 -473 -536 -554 -647 -777 -120 -245 -175 -480 -174 -758 0 -452 158
-852 465 -1177 413 -437 1005 -623 1598 -503 239 49 490 164 691 317 34 26
244 227 467 448 452 447 526 513 716 628 217 131 474 226 739 273 44 8 172 17
284 21 l204 6 -6 139 c-23 507 -191 1079 -447 1523 -575 999 -1557 1640 -2694
1760 -80 8 -179 15 -221 15 l-75 0 0 -160z"/>
<path d="M3040 6974 c-1485 -199 -2682 -1319 -2974 -2784 -52 -262 -60 -354
-60 -690 0 -337 8 -429 60 -690 218 -1088 945 -2014 1950 -2483 330 -154 657
-249 1044 -304 179 -25 701 -25 880 0 570 81 1051 261 1515 570 520 346 973
878 1229 1444 151 334 246 666 291 1016 22 176 36 157 -109 157 -397 0 -759
-121 -1069 -357 -34 -26 -251 -234 -482 -463 -279 -276 -452 -440 -515 -486
-295 -219 -623 -354 -980 -405 -134 -19 -448 -17 -575 5 -466 79 -841 270
-1160 590 -419 421 -639 1010 -596 1591 34 446 183 823 465 1175 33 41 241
257 462 480 220 223 425 439 456 480 226 311 338 651 338 1030 l0 140 -32 -1
c-18 -1 -80 -7 -138 -15z"/>
</g>
</svg>
